<svg width="108" height="108" viewBox="0 0 108 108" fill="none"
  xmlns="http://www.w3.org/2000/svg">
  <path d="M63.2823 38.1576C63.2639 31.996 61.0005 26.0524 56.9158 21.4393C52.8312 16.8262 47.2053 13.8598 41.0913 13.0956C34.9773 12.3313 28.7943 13.8216 23.6998 17.2873C18.6053 20.753 14.9485 25.9566 13.414 31.924C11.8794 37.8914 12.5723 44.2136 15.363 49.707C18.1536 55.2004 22.8507 59.4885 28.5749 61.7684M12.7415 63.3518H28.5749V47.5184" stroke="#009688" stroke-width="4.75" stroke-linecap="round" stroke-linejoin="round"/>
  <path d="M51 92.1667C54.4978 92.1667 57.3333 89.3311 57.3333 85.8333C57.3333 82.3355 54.4978 79.5 51 79.5C47.5022 79.5 44.6667 82.3355 44.6667 85.8333C44.6667 89.3311 47.5022 92.1667 51 92.1667Z" stroke="#009688" stroke-width="4.75" stroke-linecap="round" stroke-linejoin="round"/>
  <path d="M89 92.1667C92.4978 92.1667 95.3333 89.3311 95.3333 85.8333C95.3333 82.3355 92.4978 79.5 89 79.5C85.5022 79.5 82.6667 82.3355 82.6667 85.8333C82.6667 89.3311 85.5022 92.1667 89 92.1667Z" stroke="#009688" stroke-width="4.75" stroke-linecap="round" stroke-linejoin="round"/>
  <path d="M82.6667 85.8333H57.3333M44.6667 85.8333H38.3333V51C38.3333 50.1601 38.667 49.3547 39.2608 48.7608C39.8547 48.167 40.6601 47.8333 41.5 47.8333H85.8333C90.0326 47.8333 94.0599 50.1687 97.0292 54.3258C99.9985 58.4829 101.667 64.121 101.667 70V85.8333H95.3333H44.6667Z" stroke="#009688" stroke-width="4.75" stroke-linecap="round" stroke-linejoin="round"/>
  <path d="M82.6667 47.8333L87.4167 70H101.667" stroke="#009688" stroke-width="4.75" stroke-linecap="round" stroke-linejoin="round"/>
  <path d="M38.3333 63.6667H85.8333" stroke="#009688" stroke-width="4.75" stroke-linecap="round" stroke-linejoin="round"/>
  <path d="M54.1667 47.8333V63.6667" stroke="#009688" stroke-width="4.75" stroke-linecap="round" stroke-linejoin="round"/>
  <path d="M70 47.8333V63.6667" stroke="#009688" stroke-width="4.75" stroke-linecap="round" stroke-linejoin="round"/>
</svg>
