<svg width="108" height="107" viewBox="0 0 108 107" fill="none"
  xmlns="http://www.w3.org/2000/svg">
  <path d="M63.2823 37.6555C63.2639 31.575 61.0005 25.7096 56.9158 21.1572C52.8312 16.6048 47.2053 13.6775 41.0913 12.9233C34.9773 12.1691 28.7943 13.6397 23.6998 17.0598C18.6053 20.4799 14.9485 25.615 13.414 31.504C11.8794 37.3929 12.5723 43.6318 15.363 49.053C18.1536 54.4741 22.8507 58.7057 28.5749 60.9557M12.7415 62.5182H28.5749V46.8932" stroke="#009688" stroke-width="4.75" stroke-linecap="round" stroke-linejoin="round"/>
  <path d="M51 91.375C54.4978 91.375 57.3333 88.5768 57.3333 85.125C57.3333 81.6732 54.4978 78.875 51 78.875C47.5022 78.875 44.6667 81.6732 44.6667 85.125C44.6667 88.5768 47.5022 91.375 51 91.375Z" stroke="#009688" stroke-width="4.75" stroke-linecap="round" stroke-linejoin="round"/>
  <path d="M89 91.375C92.4978 91.375 95.3333 88.5768 95.3333 85.125C95.3333 81.6732 92.4978 78.875 89 78.875C85.5022 78.875 82.6667 81.6732 82.6667 85.125C82.6667 88.5768 85.5022 91.375 89 91.375Z" stroke="#009688" stroke-width="4.75" stroke-linecap="round" stroke-linejoin="round"/>
  <path d="M44.6667 85.125H38.3333V50.75C38.3333 49.9212 38.667 49.1263 39.2608 48.5403C39.8547 47.9542 40.6601 47.625 41.5 47.625H85.8333C90.0326 47.625 94.0599 49.9297 97.0292 54.032C99.9985 58.1344 101.667 63.6984 101.667 69.5V85.125H95.3333M82.6667 85.125H57.3333" stroke="#009688" stroke-width="4.75" stroke-linecap="round" stroke-linejoin="round"/>
  <path d="M82.6667 47.625L87.4167 69.5H101.667" stroke="#009688" stroke-width="4.75" stroke-linecap="round" stroke-linejoin="round"/>
  <path d="M38.3333 63.25H85.8333" stroke="#009688" stroke-width="4.75" stroke-linecap="round" stroke-linejoin="round"/>
  <path d="M54.1667 47.625V63.25" stroke="#009688" stroke-width="4.75" stroke-linecap="round" stroke-linejoin="round"/>
  <path d="M70 47.625V63.25" stroke="#009688" stroke-width="4.75" stroke-linecap="round" stroke-linejoin="round"/>
</svg>
